HIERARCHY
ROOT hip
{
  OFFSET 0 0 0
  CHANNELS 6 Xposition Yposition Zposition Zrotation Yrotation Xrotation
  JOINT abdomen
  {
    OFFSET 0 20.6881 -0.73152
    CHANNELS 3 Zrotation Xrotation Yrotation
    JOINT chest
    {
      OFFSET 0 11.7043 -0.48768
      CHANNELS 3 Zrotation Xrotation Yrotation
      JOINT neck
      {
        OFFSET 0 22.1894 -2.19456
        CHANNELS 3 Zrotation Xrotation Yrotation
        JOINT head
        {
          OFFSET -0.24384 7.07133 1.2192
          CHANNELS 3 Zrotation Xrotation Yrotation
          JOINT leftEye
          {
            OFFSET 4.14528 8.04674 8.04672
            CHANNELS 3 Zrotation Xrotation Yrotation
            End Site
            {
              OFFSET 1 0 0
            }
          }
          JOINT rightEye
          {
            OFFSET -3.6576 8.04674 8.04672
            CHANNELS 3 Zrotation Xrotation Yrotation
            End Site
            {
              OFFSET 1 0 0
            }
          }
        }
      }
      JOINT rCollar
      {
        OFFSET -2.68224 19.2634 -4.8768
        CHANNELS 3 Zrotation Xrotation Yrotation
        JOINT rShldr
        {
          OFFSET -8.77824 -1.95073 1.46304
          CHANNELS 3 Zrotation Xrotation Yrotation
          JOINT rForeArm
          {
            OFFSET -28.1742 -1.7115 0.48768
            CHANNELS 3 Zrotation Xrotation Yrotation
            JOINT rHand
            {
              OFFSET -22.5879 0.773209 7.07136
              CHANNELS 3 Zrotation Xrotation Yrotation
              JOINT rThumb1
              {
                OFFSET -1.2192 -0.487915 3.41376
                CHANNELS 3 Zrotation Xrotation Yrotation
                JOINT rThumb2
                {
                  OFFSET -3.37035 -0.52449 3.41376
                  CHANNELS 3 Zrotation Xrotation Yrotation
                  End Site
                  {
                    OFFSET -1.78271 -1.18214 1.43049
                  }
                }
              }
              JOINT rIndex1
              {
                OFFSET -7.75947 0.938293 5.60832
                CHANNELS 3 Zrotation Xrotation Yrotation
                JOINT rIndex2
                {
                  OFFSET -2.54057 -0.884171 1.56538
                  CHANNELS 3 Zrotation Xrotation Yrotation
                  End Site
                  {
                    OFFSET -1.62519 -0.234802 1.16502
                  }
                }
              }
              JOINT rMid1
              {
                OFFSET -8.24714 1.18213 3.41376
                CHANNELS 3 Zrotation Xrotation Yrotation
                JOINT rMid2
                {
                  OFFSET -3.10165 -0.590103 1.0647
                  CHANNELS 3 Zrotation Xrotation Yrotation
                  End Site
                  {
                    OFFSET -2.48547 -0.328903 0.83742
                  }
                }
              }
              JOINT rRing1
              {
                OFFSET -8.82822 0.546677 1.51678
                CHANNELS 3 Zrotation Xrotation Yrotation
                JOINT rRing2
                {
                  OFFSET -2.60934 -0.819778 -0.0198488
                  CHANNELS 3 Zrotation Xrotation Yrotation
                  End Site
                  {
                    OFFSET -2.33842 -0.294052 0.168128
                  }
                }
              }
              JOINT rPinky1
              {
                OFFSET -8.27202 -0.0477905 -0.4584
                CHANNELS 3 Zrotation Xrotation Yrotation
                JOINT rPinky2
                {
                  OFFSET -1.82734 -0.647385 -0.700984
                  CHANNELS 3 Zrotation Xrotation Yrotation
                  End Site
                  {
                    OFFSET -1.69225 -0.51767 -0.607171
                  }
                }
              }
            }
          }
        }
      }
      JOINT lCollar
      {
        OFFSET 2.68224 19.2634 -4.8768
        CHANNELS 3 Zrotation Xrotation Yrotation
        JOINT lShldr
        {
          OFFSET 8.77824 -1.95073 1.46304
          CHANNELS 3 Zrotation Xrotation Yrotation
          JOINT lForeArm
          {
            OFFSET 28.1742 -1.7115 0.48768
            CHANNELS 3 Zrotation Xrotation Yrotation
            JOINT lHand
            {
              OFFSET 22.5879 0.773209 7.07136
              CHANNELS 3 Zrotation Xrotation Yrotation
              JOINT lThumb1
              {
                OFFSET 1.2192 -0.487915 3.41376
                CHANNELS 3 Zrotation Xrotation Yrotation
                JOINT lThumb2
                {
                  OFFSET 3.37035 -0.52449 3.41376
                  CHANNELS 3 Zrotation Xrotation Yrotation
                  End Site
                  {
                    OFFSET 1.78271 -1.18214 1.43049
                  }
                }
              }
              JOINT lIndex1
              {
                OFFSET 7.75947 0.938293 5.60832
                CHANNELS 3 Zrotation Xrotation Yrotation
                JOINT lIndex2
                {
                  OFFSET 2.54057 -0.884171 1.56538
                  CHANNELS 3 Zrotation Xrotation Yrotation
                  End Site
                  {
                    OFFSET 1.62519 -0.234802 1.16502
                  }
                }
              }
              JOINT lMid1
              {
                OFFSET 8.24714 1.18213 3.41376
                CHANNELS 3 Zrotation Xrotation Yrotation
                JOINT lMid2
                {
                  OFFSET 3.10165 -0.590103 1.0647
                  CHANNELS 3 Zrotation Xrotation Yrotation
                  End Site
                  {
                    OFFSET 2.48547 -0.328903 0.83742
                  }
                }
              }
              JOINT lRing1
              {
                OFFSET 8.82822 0.546677 1.51678
                CHANNELS 3 Zrotation Xrotation Yrotation
                JOINT lRing2
                {
                  OFFSET 2.60934 -0.819778 -0.0198488
                  CHANNELS 3 Zrotation Xrotation Yrotation
                  End Site
                  {
                    OFFSET 2.33842 -0.294052 0.168128
                  }
                }
              }
              JOINT lPinky1
              {
                OFFSET 8.27202 -0.0477905 -0.4584
                CHANNELS 3 Zrotation Xrotation Yrotation
                JOINT lPinky2
                {
                  OFFSET 1.82734 -0.647385 -0.700984
                  CHANNELS 3 Zrotation Xrotation Yrotation
                  End Site
                  {
                    OFFSET 1.69225 -0.51767 -0.607171
                  }
                }
              }
            }
          }
        }
      }
    }
  }
  JOINT rButtock
  {
    OFFSET -8.77824 4.35084 1.2192
    CHANNELS 3 Zrotation Xrotation Yrotation
    JOINT rThigh
    {
      OFFSET 0 -1.70687 -2.19456
      CHANNELS 3 Zrotation Xrotation Yrotation
      JOINT rShin
      {
        OFFSET 0 -36.8199 0.73152
        CHANNELS 3 Zrotation Xrotation Yrotation
        JOINT rFoot
        {
          OFFSET 0.73152 -45.1104 -5.12064
          CHANNELS 3 Zrotation Xrotation Yrotation
          End Site
          {
            OFFSET -1.1221 -3.69964 12.103
          }
        }
      }
    }
  }
  JOINT lButtock
  {
    OFFSET 8.77824 4.35084 1.2192
    CHANNELS 3 Zrotation Xrotation Yrotation
    JOINT lThigh
    {
      OFFSET 0 -1.70687 -2.19456
      CHANNELS 3 Zrotation Xrotation Yrotation
      JOINT lShin
      {
        OFFSET 0 -36.8199 0.73152
        CHANNELS 3 Zrotation Xrotation Yrotation
        JOINT lFoot
        {
          OFFSET -0.73152 -45.1104 -5.12064
          CHANNELS 3 Zrotation Xrotation Yrotation
          End Site
          {
            OFFSET 1.1221 -3.69964 12.103
          }
        }
      }
    }
  }
}
MOTION
Frames:	6
Frame Time:	0.03333
-1.9890000014129328 51.483798027038574 -26.184000124339946 -173.02500915527344 79.90359497070312 -167.88400268554688 -6.321897029876709 14.261896133422852 17.47490119934082 -4.454339504241943 -12.768301963806152 4.170169830322266 0.7819882035255432 14.933992385864258 13.086992263793945 -1.6438997983932495 -18.795494079589844 25.619691848754883 -0.0 0.0 -0.0 -0.0 0.0 -0.0 -0.0 0.0 0.0 3.662733793258667 65.53211212158203 68.01530456542969 -26.125595092773438 -46.02589416503906 95.60159301757812 -0.22379814088344574 13.353192329406738 1.9116673469543457 -0.0 -0.0 -0.0 -0.0 -0.0 -0.0 -0.0 -0.0 -0.0 7.730902194976807 5.47491455078125 0.4173222780227661 -0.0 -0.0 -0.0 2.905566453933716 0.9650754332542419 0.10300818830728531 -0.0 -0.0 -0.0 10.278596878051758 0.7318810820579529 0.026273518800735474 -0.0 -0.0 -0.0 2.221662998199463 -0.7334509491920471 -0.20832103490829468 -0.0 0.0 0.0 -54.63120651245117 -0.061876408755779266 -15.202204704284668 26.623294830322266 -44.95429992675781 -93.36740112304688 1.9824703931808472 -36.46767807006836 5.968162536621094 -0.0 0.0 -0.0 -0.0 0.0 -0.0 -0.0 0.0 -0.0 -7.730902194976807 5.47491455078125 -0.4173222780227661 -0.0 0.0 -0.0 -2.905566453933716 0.9650754332542419 -0.10300818830728531 -0.0 0.0 -0.0 -10.278596878051758 0.7318810820579529 -0.026273518800735474 -0.0 0.0 -0.0 -2.221662998199463 -0.7334509491920471 0.20832103490829468 -0.0 0.0 -0.0 -62.89849853515625 -39.41160202026367 -47.46769332885742 -28.572509765625 88.1045150756836 30.20780372619629 -2.418713092803955 -20.938405990600586 -6.397547245025635 0.0 0.0 0.0 68.19811248779297 -50.77299880981445 50.83821105957031 12.222611427307129 85.55184936523438 -13.042243003845215 -5.344925880432129 -22.724016189575195 -7.706084728240967
-2.0301000000472413 50.836801528930664 -26.41700012900401 -169.94898986816406 79.64728546142578 -164.65101623535156 -5.652459144592285 14.034602165222168 17.416488647460938 -4.521667957305908 -12.832998275756836 4.166584491729736 0.7296397686004639 14.997601509094238 13.10429859161377 -1.4986460208892822 -18.74289894104004 25.681991577148438 -0.0 0.0 -0.0 -0.0 0.0 -0.0 0.0 0.0 -0.0 3.0715229511260986 65.2317886352539 68.62220001220703 -26.133398056030273 -46.01020812988281 95.56819915771484 -0.19147969782352448 12.371583938598633 1.7665424346923828 -0.0 -0.0 -0.0 -0.0 -0.0 -0.0 -0.0 -0.0 -0.0 7.730902194976807 5.47491455078125 0.4173222780227661 -0.0 -0.0 -0.0 2.905566453933716 0.9650754332542419 0.10300818830728531 -0.0 -0.0 -0.0 10.278596878051758 0.7318810820579529 0.026273518800735474 -0.0 -0.0 -0.0 2.221662998199463 -0.7334509491920471 -0.20832103490829468 0.0 0.0 -0.0 -54.848201751708984 -0.32144320011138916 -15.321908950805664 26.615800857543945 -44.97159194946289 -93.40299224853516 2.0453484058380127 -36.94585037231445 6.073256969451904 0.0 0.0 0.0 0.0 0.0 0.0 0.0 0.0 0.0 -7.730902194976807 5.47491455078125 -0.4173222780227661 0.0 0.0 0.0 -2.905566453933716 0.9650754332542419 -0.10300818830728531 0.0 0.0 0.0 -10.278596878051758 0.7318810820579529 -0.026273518800735474 0.0 0.0 0.0 -2.221662998199463 -0.7334509491920471 0.20832103490829468 -0.0 0.0 -0.0 -63.683692932128906 -39.16539764404297 -48.4380989074707 -37.74590301513672 88.50839233398438 39.39822769165039 -2.051576614379883 -21.441804885864258 -5.633200645446777 0.0 0.0 0.0 70.90579986572266 -51.222110748291016 53.06639862060547 19.43130874633789 87.07785034179688 -20.23720359802246 -5.577941417694092 -23.008703231811523 -8.013142585754395
-2.067499999611755 50.19890069961548 -26.60300012503285 -167.35499572753906 79.21328735351562 -161.92999267578125 -4.911516189575195 13.866986274719238 17.279598236083984 -4.570766925811768 -12.85988712310791 4.143823146820068 0.7036944627761841 15.006196975708008 13.104100227355957 -1.3943740129470825 -18.707508087158203 25.700788497924805 -0.0 0.0 -0.0 -0.0 0.0 -0.0 0.0 0.0 -0.0 2.683439254760742 64.90969848632812 68.99030303955078 -26.147602081298828 -45.98190689086914 95.50809478759766 -0.17815499007701874 11.941105842590332 1.7033284902572632 -0.0 -0.0 -0.0 -0.0 -0.0 -0.0 -0.0 -0.0 -0.0 7.730902194976807 5.47491455078125 0.4173222780227661 -0.0 -0.0 -0.0 2.905566453933716 0.9650754332542419 0.10300818830728531 -0.0 -0.0 -0.0 10.278596878051758 0.7318810820579529 0.026273518800735474 -0.0 -0.0 -0.0 2.221662998199463 -0.7334509491920471 -0.20832103490829468 0.0 0.0 -0.0 -55.09149932861328 -0.5793969035148621 -15.497493743896484 26.62950897216797 -44.93999481201172 -93.33760070800781 1.9745334386825562 -36.53604507446289 5.976800441741943 0.0 0.0 0.0 0.0 0.0 0.0 0.0 0.0 0.0 -7.730902194976807 5.47491455078125 -0.4173222780227661 0.0 0.0 0.0 -2.905566453933716 0.9650754332542419 -0.10300818830728531 0.0 0.0 0.0 -10.278596878051758 0.7318810820579529 -0.026273518800735474 0.0 0.0 0.0 -2.221662998199463 -0.7334509491920471 0.20832103490829468 -0.0 0.0 -0.0 -64.33029174804688 -38.854103088378906 -49.38780212402344 -54.64134979248047 88.87464904785156 56.32658386230469 -1.8404631614685059 -21.855710983276367 -5.203789710998535 0.0 0.0 0.0 73.76329040527344 -51.65049743652344 55.37789535522461 38.93951416015625 88.40442657470703 -39.727455139160156 -5.7666730880737305 -23.234697341918945 -8.248119354248047
-2.116800002477248 49.56769943237305 -26.744000127655454 -164.8179931640625 78.6942138671875 -159.2889862060547 -4.099257469177246 13.758670806884766 17.064006805419922 -4.601714611053467 -12.848793983459473 4.101768970489502 0.7041077613830566 14.959607124328613 13.086402893066406 -1.3309186697006226 -18.689390182495117 25.676301956176758 -0.0 0.0 -0.0 -0.0 0.0 -0.0 0.0 0.0 -0.0 2.4901866912841797 64.56778717041016 69.12899780273438 -26.167802810668945 -45.94109344482422 95.42149353027344 -0.18183569610118866 12.061890602111816 1.7209807634353638 -0.0 -0.0 -0.0 -0.0 -0.0 -0.0 -0.0 -0.0 -0.0 7.730902194976807 5.47491455078125 0.4173222780227661 -0.0 -0.0 -0.0 2.905566453933716 0.9650754332542419 0.10300818830728531 -0.0 -0.0 -0.0 10.278596878051758 0.7318810820579529 0.026273518800735474 -0.0 -0.0 -0.0 2.221662998199463 -0.7334509491920471 -0.20832103490829468 0.0 0.0 -0.0 -55.36191177368164 -0.8355078101158142 -15.72889232635498 26.664100646972656 -44.8588981628418 -93.1719970703125 1.8104872703552246 -35.2359504699707 5.696949481964111 0.0 0.0 0.0 0.0 0.0 0.0 0.0 0.0 0.0 -7.730902194976807 5.47491455078125 -0.4173222780227661 0.0 0.0 0.0 -2.905566453933716 0.9650754332542419 -0.10300818830728531 0.0 0.0 0.0 -10.278596878051758 0.7318810820579529 -0.026273518800735474 0.0 0.0 0.0 -2.221662998199463 -0.7334509491920471 0.20832103490829468 -0.0 0.0 -0.0 -64.8355941772461 -38.4795036315918 -50.3152961730957 -85.0148696899414 89.07549285888672 86.75028228759766 -1.7960573434829712 -22.181888580322266 -5.11293363571167 0.0 0.0 0.0 76.77310180664062 -52.0519905090332 57.775108337402344 100.79618072509766 88.95021057128906 -101.56382751464844 -5.909359931945801 -23.40270233154297 -8.410216331481934
-2.1735000034823315 48.936301469802856 -26.884000122663565 -162.37600708007812 78.1849136352539 -156.70899963378906 -3.447265625 13.645009994506836 16.870996475219727 -4.611172199249268 -12.861977577209473 4.062760829925537 0.7112675905227661 14.954010963439941 13.055190086364746 -1.2073509693145752 -18.705495834350586 25.63359832763672 -0.0 0.0 -0.0 -0.0 0.0 -0.0 -0.0 0.0 -0.0 2.3381285667419434 64.24510192871094 69.18861389160156 -26.185291290283203 -45.90570831298828 95.34660339355469 -0.17667768895626068 12.540190696716309 1.7890304327011108 -0.0 0.0 0.0 -0.0 0.0 -0.0 -0.0 0.0 0.0 7.730902194976807 5.47491455078125 0.4173222780227661 -0.0 0.0 0.0 2.905566453933716 0.9650754332542419 0.10300818830728531 -0.0 0.0 0.0 10.278596878051758 0.7318810820579529 0.026273518800735474 -0.0 0.0 0.0 2.221662998199463 -0.7334509491920471 -0.20832103490829468 -0.0 0.0 -0.0 -55.550498962402344 -1.003189206123352 -15.930901527404785 26.674211502075195 -44.83469009399414 -93.12309265136719 1.7735216617584229 -34.793704986572266 5.609525680541992 0.0 0.0 0.0 0.0 0.0 0.0 0.0 0.0 0.0 -7.730902194976807 5.47491455078125 -0.4173222780227661 0.0 0.0 0.0 -2.905566453933716 0.9650754332542419 -0.10300818830728531 0.0 0.0 0.0 -10.278596878051758 0.7318810820579529 -0.026273518800735474 0.0 0.0 0.0 -2.221662998199463 -0.7334509491920471 0.20832103490829468 -0.0 0.0 -0.0 -65.52569580078125 -38.179203033447266 -51.27889633178711 -120.85587310791016 88.92207336425781 122.64073181152344 -1.7555431127548218 -22.48419952392578 -5.033462047576904 0.0 0.0 0.0 79.74710845947266 -52.31219482421875 60.21860885620117 146.285888671875 88.09002685546875 -147.02500915527344 -6.189785480499268 -23.522003173828125 -8.830772399902344
-2.240400000664522 48.2820987701416 -27.037000123527832 -160.77200317382812 77.76718139648438 -154.96798706054688 -2.955766201019287 13.525897026062012 16.70040512084961 -4.5991339683532715 -12.899285316467285 4.026667594909668 0.7252089977264404 14.989692687988281 13.010589599609375 -1.023705005645752 -18.755800247192383 25.572893142700195 -0.0 0.0 -0.0 -0.0 0.0 -0.0 -0.0 0.0 0.0 2.2242259979248047 63.94181823730469 69.17220306396484 -26.19989585876465 -45.875701904296875 95.28329467773438 -0.22455084323883057 13.37498664855957 1.9149421453475952 -0.0 0.0 -0.0 -0.0 0.0 -0.0 -0.0 0.0 -0.0 7.730902194976807 5.47491455078125 0.4173222780227661 -0.0 0.0 -0.0 2.905566453933716 0.9650754332542419 0.10300818830728531 -0.0 0.0 -0.0 10.278596878051758 0.7318810820579529 0.026273518800735474 -0.0 0.0 -0.0 2.221662998199463 -0.7334509491920471 -0.20832103490829468 -0.0 0.0 0.0 -55.65610122680664 -1.0828155279159546 -16.10309600830078 26.660303115844727 -44.867706298828125 -93.19029998779297 1.8077318668365479 -35.21240997314453 5.692337989807129 -0.0 0.0 -0.0 -0.0 0.0 -0.0 -0.0 0.0 -0.0 -7.730902194976807 5.47491455078125 -0.4173222780227661 -0.0 0.0 -0.0 -2.905566453933716 0.9650754332542419 -0.10300818830728531 -0.0 0.0 -0.0 -10.278596878051758 0.7318810820579529 -0.026273518800735474 -0.0 0.0 -0.0 -2.221662998199463 -0.7334509491920471 0.20832103490829468 -0.0 0.0 -0.0 -66.40438842773438 -37.94949722290039 -52.280094146728516 -143.28839111328125 88.44253540039062 145.1234130859375 -1.7199187278747559 -22.762584686279297 -4.9655303955078125 0.0 0.0 0.0 82.66268920898438 -52.42930221557617 62.683990478515625 159.6280975341797 86.86917877197266 -160.32814025878906 -6.608733654022217 -23.590307235717773 -9.509891510009766
